<svg id="Layer_1" data-name="Layer 1" xmlns="http://www.w3.org/2000/svg" viewBox="0 0 160 101">
  <defs>
    <style>
      .cls-1 {
        fill-opacity: 0.24;
      }

      .cls-2 {
        fill: none;
        stroke: #000;
        stroke-opacity: 0.56;
      }

      .cls-3 {
        fill-opacity: 0.56;
      }
    </style>
  </defs>
  <g>
    <g>
      <path class="cls-1" d="M47,.5h82a5,5,0,0,1,5,5h0a5,5,0,0,1-5,5H47a5,5,0,0,1-5-5h0A5,5,0,0,1,47,.5Z"/>
      <path class="cls-1" d="M47,90.5h82a5,5,0,0,1,5,5h0a5,5,0,0,1-5,5H47a5,5,0,0,1-5-5h0A5,5,0,0,1,47,90.5Z"/>
      <circle class="cls-2" cx="29" cy="5.5" r="5"/>
      <circle class="cls-2" cx="29" cy="95.5" r="5"/>
    </g>
    <g>
      <path class="cls-1" d="M47,30.5h82a5,5,0,0,1,5,5h0a5,5,0,0,1-5,5H47a5,5,0,0,1-5-5h0A5,5,0,0,1,47,30.5Z"/>
      <circle class="cls-2" cx="29" cy="35.5" r="5"/>
    </g>
    <g>
      <path class="cls-1" d="M47,60.5h82a5,5,0,0,1,5,5h0a5,5,0,0,1-5,5H47a5,5,0,0,1-5-5h0A5,5,0,0,1,47,60.5Z"/>
      <circle class="cls-2" cx="29" cy="65.5" r="5"/>
    </g>
    <path class="cls-3" d="M0,49.5H160v1H0Zm0-30H160v1H0Zm0,60H160v1H0Z"/>
  </g>
</svg>