<svg id="Layer_1" data-name="Layer 1" xmlns="http://www.w3.org/2000/svg" viewBox="0 0 18.28 14.86">
  <defs>
    <style>
      .cls-1 {
        fill: #fff;
        fill-rule: evenodd;
      }
    </style>
  </defs>
  <path class="cls-1" d="M5.56,6.28H22.71a.57.57,0,0,1,.57.57.58.58,0,0,1-.57.57H5.56A.58.58,0,0,1,5,6.85.57.57,0,0,1,5.56,6.28Zm0,6.85H22.71a.58.58,0,0,1,.57.57.57.57,0,0,1-.57.57H5.56A.57.57,0,0,1,5,13.7.58.58,0,0,1,5.56,13.13Zm0,6.86H22.71a.57.57,0,0,1,.57.57.58.58,0,0,1-.57.57H5.56A.58.58,0,0,1,5,20.56.57.57,0,0,1,5.56,20Z" transform="translate(-4.99 -6.28)"/>
</svg>
